<?xml version="1.0" standalone="no"?>
<!DOCTYPE svg PUBLIC "-//W3C//DTD SVG 20010904//EN"
 "http://www.w3.org/TR/2001/REC-SVG-20010904/DTD/svg10.dtd">
<svg version="1.0" xmlns="http://www.w3.org/2000/svg"
 width="1024.000000pt" height="1024.000000pt" viewBox="0 0 1024.000000 1024.000000"
 preserveAspectRatio="xMidYMid meet">

<g transform="translate(0.000000,1024.000000) scale(0.100000,-0.100000)"
fill="#000000" stroke="none">
<path d="M5455 10218 c-68 -299 -74 -693 -15 -1033 14 -82 14 -82 -20 -93 -18
-7 -41 -29 -59 -57 -16 -26 -53 -72 -82 -103 -62 -66 -83 -102 -99 -162 -7
-24 -32 -83 -56 -131 -94 -185 -173 -457 -189 -654 -11 -127 -17 -136 -126
-180 -220 -88 -373 -127 -574 -146 -121 -12 -534 -6 -815 12 -293 18 -418 -4
-464 -81 -38 -65 -31 -208 20 -415 30 -118 75 -192 124 -202 22 -4 53 -33 120
-112 82 -95 229 -231 251 -231 5 0 9 -4 9 -10 0 -5 -19 -10 -42 -10 -24 0 -62
-5 -85 -10 -83 -19 -423 -39 -653 -39 -297 1 -431 -15 -970 -116 -295 -56
-258 -58 -310 22 -46 71 -180 243 -189 243 -4 0 -34 26 -67 58 -65 60 -235
156 -329 185 -27 9 -93 21 -145 26 -145 16 -200 -4 -200 -71 0 -42 25 -84 99
-167 67 -75 100 -120 168 -224 120 -183 142 -220 148 -247 4 -17 11 -30 16
-30 5 0 14 -11 18 -23 5 -13 41 -89 80 -168 69 -143 102 -222 187 -457 49
-133 104 -320 104 -352 0 -21 -28 -39 -94 -60 -68 -22 -226 -122 -269 -170
-26 -29 -53 -76 -71 -121 -24 -63 -28 -83 -23 -139 7 -76 26 -126 66 -172 35
-40 37 -49 50 -168 12 -111 71 -295 124 -392 20 -34 41 -83 47 -108 24 -91
122 -253 191 -315 23 -20 57 -44 76 -52 55 -22 159 -27 231 -10 61 14 62 14
67 -7 3 -11 9 -277 14 -591 7 -411 13 -579 22 -601 l12 -31 70 40 c75 43 160
66 248 67 l57 0 -52 -78 c-42 -65 -120 -211 -157 -297 -20 -44 -203 -582 -227
-665 -6 -19 -33 -100 -60 -180 -27 -80 -66 -195 -86 -256 -20 -61 -51 -145
-70 -186 -33 -72 -36 -75 -99 -106 -35 -18 -67 -32 -71 -32 -4 0 -39 -15 -79
-34 -40 -19 -132 -55 -205 -80 -221 -76 -271 -107 -352 -211 -31 -41 -43 -68
-59 -143 -12 -50 -21 -103 -21 -117 l0 -25 1508 5 c829 2 1543 4 1587 5 44 0
431 -3 860 -5 l781 -6 29 32 c17 18 49 51 71 73 58 57 71 83 79 147 8 63 -9
219 -31 297 -9 28 -24 91 -34 140 -10 48 -35 148 -55 222 -50 178 -66 239
-108 398 l-35 132 362 1 c198 0 460 4 580 8 352 11 3508 -15 3934 -34 114 -5
122 -4 122 13 0 21 40 17 -500 47 -801 45 -1014 56 -1500 75 -135 5 -306 13
-380 16 -74 3 -256 9 -405 13 l-270 6 58 43 c53 40 135 132 164 185 42 78 114
241 128 290 8 32 24 66 34 76 20 20 41 93 41 145 0 19 6 39 13 43 27 16 50 99
45 167 -5 79 -44 144 -95 161 -45 15 -49 22 -25 48 47 50 142 303 142 378 0
21 11 28 51 33 13 2 31 6 39 9 8 3 35 11 60 17 149 37 244 83 360 175 80 64
88 73 132 155 84 152 88 297 18 580 -38 151 -66 313 -85 482 -8 75 -17 142
-20 150 -2 7 -11 60 -20 117 -8 57 -24 135 -36 175 -28 93 -102 242 -143 286
-51 55 -74 101 -66 130 12 38 11 99 0 121 -7 12 -159 93 -383 204 -347 172
-454 234 -429 249 5 3 52 10 103 16 280 29 693 134 757 193 51 48 6 245 -85
364 l-24 31 57 26 c31 14 61 26 68 26 17 0 248 129 276 154 14 13 45 37 70 54
53 35 90 73 119 122 29 48 27 57 -16 77 -20 10 -38 23 -39 28 -2 6 17 26 42
45 134 103 177 138 256 206 89 77 139 141 115 149 -42 14 -147 36 -242 49
-384 56 -453 104 -540 376 -25 80 -26 87 -11 115 9 17 42 50 74 75 164 129
342 356 342 436 0 56 -18 68 -94 61 -36 -3 -66 -3 -66 1 0 25 59 165 85 202
35 49 89 152 110 209 7 20 21 53 30 75 l16 39 -23 -7 c-13 -4 -62 -13 -110
-21 -48 -7 -92 -16 -98 -20 -14 -8 -13 5 4 51 14 40 44 192 71 349 37 225 42
479 13 678 l-11 77 -95 0 -94 0 6 -32 c43 -230 30 -639 -28 -893 -52 -228 -93
-352 -152 -458 -9 -16 -14 -31 -11 -33 2 -3 44 2 93 10 49 7 92 11 96 7 4 -4
-17 -40 -47 -81 -43 -60 -68 -84 -125 -118 -38 -23 -77 -42 -85 -42 -8 0 -15
-4 -15 -10 0 -5 4 -10 9 -10 23 0 105 -66 139 -111 46 -61 70 -68 119 -38 l37
23 -19 -24 c-46 -61 -209 -179 -307 -224 -113 -52 -314 -90 -335 -64 -6 7 -13
40 -17 73 -18 176 -82 453 -152 665 -46 136 -137 338 -180 396 -20 28 -22 34
-9 44 8 7 27 10 42 7 57 -11 222 101 343 234 83 90 105 118 189 249 39 59 150
274 178 345 34 84 34 85 13 85 -21 0 -42 -31 -46 -69 -2 -13 -14 -40 -28 -60
-14 -20 -26 -40 -26 -43 0 -12 -93 -164 -154 -251 -33 -48 -70 -102 -80 -119
-19 -31 -149 -168 -159 -168 -3 0 -19 -14 -37 -30 -18 -17 -43 -33 -56 -36
-13 -3 -24 -10 -24 -14 0 -8 -94 -64 -112 -66 -4 -1 -13 -2 -19 -3 -5 0 -7 -5
-4 -11 3 -5 0 -7 -8 -4 -8 3 -18 1 -22 -5 -3 -6 -18 -10 -33 -10 -21 1 -23 2
-7 6 26 7 45 22 45 37 0 6 -5 3 -11 -6 -5 -10 -18 -18 -27 -18 -10 0 -23 -5
-29 -11 -8 -8 -19 -6 -42 7 -16 10 -28 21 -25 26 3 4 -2 5 -10 2 -25 -10 -19
14 8 31 44 29 84 35 103 17 16 -16 16 -16 10 1 -3 9 -2 17 3 17 6 0 10 -7 10
-17 0 -9 3 -14 6 -10 4 3 1 20 -5 38 -10 29 -8 34 16 58 14 14 23 20 19 14
-13 -22 1 -14 44 26 23 21 53 44 67 52 65 34 234 201 319 314 73 96 184 278
184 300 0 3 -42 5 -92 5 l-93 -1 -35 -57 c-19 -31 -58 -86 -88 -122 -71 -85
-237 -243 -286 -272 -21 -13 -55 -38 -76 -55 -29 -25 -47 -33 -77 -33 -30 0
-49 8 -79 33 -62 51 -102 77 -119 77 -31 0 -71 -29 -115 -84 -24 -31 -51 -58
-58 -61 -22 -8 -42 13 -67 71 -13 29 -32 57 -43 63 -29 16 -95 14 -128 -4 -16
-8 -38 -15 -49 -15 -39 0 -209 194 -330 378 l-55 82 -155 0 c-85 0 -155 -3
-155 -6 0 -10 37 -131 75 -249 40 -123 86 -231 131 -306 33 -55 43 -89 26 -89
-9 0 -146 -89 -207 -135 -22 -17 -75 -64 -118 -105 -43 -41 -82 -76 -86 -78
-16 -5 -21 70 -27 348 -6 249 -4 290 15 425 12 83 24 160 28 173 5 21 3 22
-76 22 -75 0 -81 -1 -86 -22z m587 -723 c-16 -13 -55 -64 -87 -112 -32 -48
-73 -110 -91 -138 -18 -27 -40 -67 -49 -88 -15 -35 -15 -41 0 -63 8 -13 24
-24 33 -24 20 0 52 31 71 66 6 12 30 34 53 49 24 15 57 44 73 65 17 21 48 49
70 64 22 14 56 40 75 57 19 17 59 50 88 72 50 38 53 39 71 22 22 -19 27 -11
-111 -156 -32 -33 -58 -67 -58 -75 0 -16 16 -19 25 -4 3 6 14 10 23 10 9 0 31
17 49 38 18 20 31 29 27 20 -10 -30 22 -32 78 -5 38 18 58 23 75 16 35 -13 49
-2 77 62 14 32 28 59 30 59 10 0 33 -55 40 -93 7 -38 8 -39 27 -21 11 10 18
23 15 30 -3 7 1 20 8 29 11 15 14 12 24 -24 14 -44 23 -54 44 -46 20 8 59 73
63 106 5 40 52 102 72 95 8 -3 24 -6 36 -6 40 0 49 -13 32 -46 -8 -16 -15 -55
-15 -86 0 -82 19 -93 140 -84 107 9 122 2 151 -62 11 -26 31 -67 44 -92 44
-82 77 -154 105 -232 55 -148 125 -442 155 -643 9 -60 21 -124 26 -141 10 -31
52 -66 110 -91 21 -9 29 -25 48 -94 13 -46 25 -93 27 -104 28 -139 34 -193 34
-285 0 -217 -70 -449 -201 -668 -75 -126 -100 -161 -124 -180 -12 -10 -42 -44
-67 -77 -48 -63 -218 -220 -303 -279 -55 -39 -225 -146 -231 -146 -2 0 -51
-22 -109 -50 -58 -27 -110 -50 -115 -50 -6 0 -10 -4 -10 -9 0 -5 -33 -21 -72
-36 -40 -15 -86 -34 -103 -42 -59 -29 -192 -75 -298 -104 -196 -52 -330 -120
-374 -189 -36 -58 -48 -67 -109 -85 -99 -29 -250 -7 -378 55 -127 61 -286 180
-336 250 -20 28 -20 28 -1 51 l19 24 309 1 c268 0 315 2 363 18 134 44 210
114 316 291 50 84 124 264 124 301 0 20 -28 14 -170 -33 -58 -19 -170 -50
-250 -69 -80 -19 -190 -48 -245 -64 -266 -76 -458 -100 -612 -76 -59 10 -101
-2 -121 -35 -39 -62 103 -104 220 -65 24 8 82 18 130 22 l87 7 -6 -24 c-4 -13
-19 -42 -35 -65 -35 -52 -39 -119 -9 -151 l19 -21 -81 -7 c-73 -6 -83 -10
-110 -38 -40 -43 -80 -132 -73 -161 8 -34 81 -111 142 -152 30 -20 87 -47 126
-61 40 -14 86 -36 103 -49 18 -13 46 -27 63 -30 26 -5 30 -9 21 -20 -6 -7 -20
-16 -30 -19 -11 -4 -42 -21 -70 -40 -27 -18 -71 -38 -97 -45 -26 -7 -53 -20
-59 -28 -19 -23 -16 -79 6 -137 63 -163 137 -440 171 -643 11 -62 24 -121 30
-132 5 -10 10 -26 10 -35 0 -13 -11 -9 -49 18 -60 43 -201 114 -256 128 -318
83 -451 92 -506 33 -22 -24 -24 -33 -24 -142 0 -75 5 -133 14 -160 12 -35 12
-47 3 -60 -37 -51 -56 -111 -60 -193 -5 -92 7 -146 40 -188 17 -22 18 -36 12
-137 -6 -103 -5 -115 16 -158 12 -26 41 -69 64 -96 41 -48 42 -52 38 -104 -3
-33 0 -56 7 -60 6 -4 11 -1 11 6 1 7 12 -11 26 -39 24 -50 44 -70 174 -179 51
-42 141 -92 182 -100 9 -2 38 -16 65 -32 26 -15 77 -38 113 -51 60 -22 74 -23
205 -17 77 3 156 9 177 12 l36 6 4 -174 c2 -95 0 -220 -4 -278 -4 -58 -8 -149
-10 -202 -2 -91 -1 -99 22 -123 19 -21 22 -29 13 -43 -15 -24 -95 -21 -153 5
-148 67 -318 110 -610 157 -367 59 -673 58 -1145 -4 -89 -11 -292 -58 -354
-81 -49 -18 -56 -18 -63 -5 -9 16 -107 83 -188 128 -25 14 -61 35 -80 46 -36
21 -151 63 -365 133 -164 54 -369 83 -525 76 -63 -3 -124 -8 -135 -12 -20 -6
-20 -1 -23 422 -2 235 -6 482 -11 548 l-7 120 37 41 c30 34 39 52 44 98 4 31
5 67 3 81 -4 21 -1 25 19 25 29 0 97 68 119 119 17 40 18 96 3 139 -9 27 -7
37 18 79 35 59 38 140 8 222 -20 55 -40 81 -89 116 -25 18 -28 27 -36 117 -10
102 -36 164 -78 187 -13 7 -21 26 -25 60 -3 27 -13 64 -22 81 -24 47 -83 108
-132 137 -40 23 -51 25 -134 21 -106 -5 -94 -18 -136 142 -52 201 -197 609
-268 755 -13 28 -36 75 -50 105 -77 167 -222 403 -348 568 -27 35 -47 65 -45
68 7 6 105 -29 158 -57 86 -44 216 -153 259 -218 13 -20 47 -61 75 -92 28 -30
65 -79 81 -108 48 -85 56 -91 125 -91 54 0 161 18 460 76 47 9 123 23 170 30
47 7 146 22 220 34 105 16 213 23 485 30 292 7 525 22 690 44 165 21 287 38
321 45 32 6 50 4 77 -11 74 -37 300 -77 283 -49 -6 9 -145 89 -180 104 -10 4
-35 15 -55 24 -19 10 -48 16 -63 14 -71 -7 -249 113 -428 290 -72 71 -129 133
-125 139 3 5 27 10 53 10 59 0 161 24 211 49 94 48 224 232 238 338 l5 41 67
6 c36 3 118 8 181 12 228 11 435 52 658 128 307 105 356 124 367 140 7 9 15
76 18 163 7 167 31 285 96 473 48 142 145 360 125 283 -5 -20 68 -143 85 -143
6 0 32 -20 58 -45 26 -24 49 -40 51 -35 7 18 -19 87 -53 140 -70 111 -98 173
-86 190 5 8 25 40 42 70 34 57 137 200 216 299 64 81 312 319 354 341 19 10
41 26 48 34 8 9 18 16 23 16 5 0 -4 -11 -20 -25z m332 -2 c-13 -20 -13 -25 -2
-16 8 7 17 10 20 7 3 -3 5 3 5 13 -2 14 6 19 33 21 33 2 34 1 16 -13 -10 -8
-23 -12 -29 -8 -6 3 -7 1 -3 -5 14 -24 -46 -39 -64 -16 -11 12 -10 17 6 29 30
23 38 17 18 -12z m838 -25 c-6 -6 -15 -9 -18 -5 -4 3 -4 14 0 23 5 13 9 15 18
6 9 -9 9 -15 0 -24z m-2057 -3158 c-3 -5 -16 -15 -28 -21 -21 -10 -21 -9 2 10
25 23 36 27 26 11z m1860 -556 c6 -7 35 -20 65 -29 30 -10 56 -19 58 -20 1 -1
-4 -15 -12 -31 -7 -16 -17 -42 -20 -58 -7 -26 -5 -28 18 -24 16 3 27 0 30 -9
4 -9 11 -11 18 -6 26 16 50 12 73 -11 13 -13 21 -27 17 -31 -4 -4 4 -2 17 5
13 6 21 7 17 2 -3 -6 -3 -12 1 -15 5 -2 2 -2 -4 -1 -23 6 -13 -5 27 -31 38
-24 70 -36 40 -14 -13 9 -13 10 0 6 8 -2 15 -9 15 -15 0 -6 24 -29 54 -51 29
-22 60 -50 68 -61 10 -15 21 -19 36 -15 15 4 18 3 9 -3 -15 -10 -6 -33 27 -74
31 -39 0 -14 -80 65 -88 85 -195 155 -304 197 -33 13 -67 31 -76 41 -13 14
-31 16 -109 14 -80 -3 -96 -6 -109 -24 -9 -11 -34 -34 -56 -51 -53 -41 -117
-95 -179 -151 -28 -25 -100 -82 -161 -127 -60 -45 -123 -93 -139 -108 -36 -33
-49 -21 -50 47 -1 51 -1 51 64 109 36 33 76 68 90 79 94 76 171 141 183 153 8
7 49 40 92 73 43 33 114 93 158 133 83 75 87 76 122 36z m-927 -278 c18 -25
53 -68 77 -97 25 -29 45 -58 45 -65 0 -21 -42 -60 -90 -84 -25 -12 -72 -39
-104 -59 -48 -29 -70 -36 -110 -36 -44 0 -51 -3 -51 -20 0 -13 8 -21 23 -23
19 -3 22 -9 22 -45 -1 -103 -20 -487 -26 -529 l-7 -47 -26 17 c-14 9 -30 22
-36 28 -12 13 -192 134 -200 134 -17 0 -75 48 -75 62 0 34 71 335 97 411 l27
78 -37 73 c-20 41 -37 87 -37 104 0 16 -9 40 -20 54 -22 28 -11 48 25 48 26 0
88 19 165 51 30 12 80 23 110 24 34 2 58 8 64 17 14 24 124 -41 164 -96z
m1196 105 c4 -5 -3 -7 -14 -4 -23 6 -26 13 -6 13 8 0 17 -4 20 -9z m326 -301
c0 -5 -7 -7 -15 -4 -8 4 -15 8 -15 10 0 2 7 4 15 4 8 0 15 -4 15 -10z m-5859
-226 c29 -26 49 -75 49 -123 l0 -39 -132 -4 c-135 -4 -176 -15 -208 -53 -7 -9
-21 -13 -31 -10 -20 7 -36 -12 -22 -26 5 -5 45 -1 99 11 49 11 98 19 109 19
17 -1 17 -2 3 -6 -27 -7 -23 -62 7 -103 14 -19 25 -39 25 -46 0 -17 47 -46 55
-34 3 6 11 10 18 10 15 0 -25 -29 -41 -30 -21 0 -142 -81 -136 -91 9 -15 37
-10 73 12 31 19 39 19 110 8 42 -6 82 -18 90 -25 9 -8 16 -41 18 -91 3 -68 1
-83 -19 -117 l-23 -39 -107 2 c-103 2 -108 1 -108 -18 0 -12 -4 -21 -10 -21
-5 0 -10 -4 -10 -8 0 -5 44 -12 98 -15 54 -3 110 -11 126 -17 27 -10 28 -12
21 -58 -7 -54 0 -62 75 -92 48 -19 92 -52 80 -60 -6 -4 -47 -4 -93 -1 -45 3
-136 6 -202 6 -110 0 -122 -2 -142 -22 l-22 -22 34 -35 c18 -19 52 -45 76 -56
63 -33 76 -49 81 -106 l5 -51 -87 -17 c-93 -19 -155 -12 -194 22 -18 17 -68
118 -108 217 -11 27 -26 61 -33 75 -7 14 -24 46 -36 72 l-23 48 21 22 c30 34
35 58 18 84 -18 28 -32 30 -57 7 -26 -23 -31 -13 -57 109 -30 143 -29 164 14
189 19 12 35 25 35 31 0 11 -31 46 -117 134 -35 35 -63 72 -63 83 0 53 56 128
130 176 61 39 212 94 300 109 120 21 282 16 311 -10z m4739 -167 c74 -13 190
-30 258 -36 68 -6 132 -16 143 -21 15 -8 19 -21 19 -58 0 -61 -54 -321 -76
-367 -24 -51 -149 -182 -212 -222 -63 -41 -153 -74 -180 -66 -10 2 -24 19 -30
36 -31 93 -46 124 -74 156 -61 69 -72 111 -73 266 0 131 10 302 21 334 5 15 4
15 204 -22z m-1227 -76 c32 -25 75 -59 95 -74 20 -15 60 -49 88 -75 61 -56 82
-71 197 -139 92 -55 100 -60 211 -149 121 -96 245 -296 246 -399 1 -43 15 -49
56 -22 37 25 85 36 268 67 37 6 91 20 119 30 28 11 51 19 52 17 1 -1 15 -23
32 -49 54 -81 80 -146 113 -283 61 -259 49 -479 -31 -553 -28 -27 -66 -28
-210 -7 -161 24 -215 34 -343 65 l-119 29 -68 -39 c-37 -22 -70 -40 -74 -40
-3 0 -38 -24 -78 -54 -40 -30 -94 -64 -122 -76 -137 -59 -340 -97 -458 -85
-79 7 -203 46 -257 80 -19 12 -55 31 -80 42 -25 11 -91 50 -147 86 -79 51
-107 76 -128 111 -15 26 -25 52 -22 60 6 14 95 59 141 70 16 4 50 22 75 39
l46 32 -42 3 c-23 2 -81 -1 -129 -6 -110 -13 -156 -1 -197 50 -38 47 -45 111
-23 188 l16 55 108 1 c128 1 169 8 201 35 28 23 24 29 -26 40 -21 4 -63 17
-93 28 -30 11 -76 20 -102 21 l-48 0 -1 -37 -1 -38 -12 34 c-11 32 -51 74 -77
83 -7 2 -14 29 -17 64 -5 74 12 112 62 139 34 19 36 19 93 0 32 -10 96 -20
143 -23 71 -3 88 -1 99 12 23 28 -1 63 -51 77 -24 6 -75 26 -115 45 -40 18
-83 36 -96 40 -14 3 -39 25 -56 49 -27 38 -32 56 -38 123 -5 72 -4 81 13 90
21 10 152 -1 181 -16 10 -5 38 -13 63 -17 63 -11 250 -74 280 -95 14 -9 59
-36 101 -59 78 -42 130 -52 170 -31 26 14 24 35 -10 170 -47 183 -81 324 -81
338 0 16 9 11 83 -47z m-3443 -5 c0 -3 -4 -8 -10 -11 -5 -3 -10 -1 -10 4 0 6
5 11 10 11 6 0 10 -2 10 -4z m64 -32 c3 -8 2 -12 -4 -9 -6 3 -10 10 -10 16 0
14 7 11 14 -7z m16 -38 c0 -2 -7 -7 -16 -10 -8 -3 -12 -2 -9 4 6 10 25 14 25
6z m-28 -66 c-37 -35 -39 -40 -12 -33 14 4 20 0 20 -12 0 -14 -6 -16 -31 -11
-17 3 -50 6 -73 7 -22 0 -35 3 -28 6 6 2 12 12 12 21 0 15 2 15 10 2 5 -8 10
-12 10 -8 0 4 10 4 22 -1 17 -6 26 -3 40 15 21 25 23 39 6 28 -7 -4 -8 -3 -4
5 4 6 16 9 27 6 12 -4 19 -2 19 6 0 7 3 9 7 6 3 -4 -8 -20 -25 -37z m-762 -45
c13 -14 19 -25 14 -25 -14 0 -54 30 -54 41 0 16 16 10 40 -16z m4698 -2017
l82 -11 0 -91 c1 -50 3 -142 6 -205 5 -90 3 -115 -7 -122 -14 -9 -342 -13
-350 -5 -10 10 29 416 41 431 15 19 109 20 228 3z m1635 -64 c40 -26 74 -48
76 -50 2 -2 -10 -23 -26 -48 -30 -44 -41 -72 -100 -245 -42 -122 -76 -117 -37
5 21 68 34 236 22 282 -5 20 -24 52 -41 70 l-31 32 33 0 c22 0 56 -15 104 -46z
m-973 -31 c1 4 3 13 4 20 1 9 23 11 81 8 141 -6 130 0 133 -67 3 -56 -4 -126
-30 -274 -16 -97 -74 -200 -111 -200 -22 0 -44 52 -56 135 -22 157 -32 256
-26 265 3 6 2 10 -4 10 -5 0 -9 32 -9 73 0 50 3 64 8 47 4 -14 9 -22 10 -17z
m-2754 -1047 c8 -3 9 -18 3 -53 -6 -26 -25 -153 -44 -281 -61 -409 -97 -608
-116 -644 -10 -19 -147 -87 -182 -91 -20 -2 -23 6 -43 158 -12 88 -30 207 -39
265 -9 58 -27 177 -40 265 -13 88 -31 206 -40 263 -9 56 -15 108 -12 115 3 9
65 11 253 9 137 -1 254 -4 260 -6z m-441 -1295 c-6 -10 -93 -71 -101 -71 -2 0
-4 13 -4 29 0 28 3 30 53 39 28 5 53 10 55 11 2 0 1 -3 -3 -8z"/>
<path d="M6330 9450 c0 -5 5 -10 11 -10 5 0 7 5 4 10 -3 6 -8 10 -11 10 -2 0
-4 -4 -4 -10z"/>
<path d="M6333 8699 c-84 -10 -200 -59 -289 -121 -67 -47 -73 -54 -58 -65 27
-20 44 -16 136 26 106 49 169 61 326 61 137 0 220 -16 289 -56 23 -13 44 -24
47 -24 11 0 -14 62 -39 94 -26 34 -85 69 -135 80 -43 10 -212 13 -277 5z"/>
<path d="M5526 8638 c-23 -32 -21 -68 4 -68 14 0 27 -16 45 -54 32 -68 46 -80
85 -71 33 7 37 16 15 35 -8 7 -15 19 -15 27 0 17 -47 112 -68 136 -21 23 -48
21 -66 -5z"/>
<path d="M5265 8213 c-63 -34 -102 -114 -114 -233 -11 -105 2 -169 45 -215 22
-24 30 -27 66 -21 115 19 191 92 218 211 17 75 -11 176 -65 232 -35 37 -47 43
-81 43 -21 -1 -52 -8 -69 -17z"/>
<path d="M6236 8185 c-130 -54 -180 -151 -180 -345 1 -113 23 -201 67 -264 12
-17 22 -32 22 -33 0 -8 98 -13 143 -7 49 6 63 13 107 55 94 89 126 198 105
356 -14 106 -44 167 -107 222 -56 48 -75 50 -157 16z"/>
<path d="M3619 5944 c-9 -3 -19 -19 -23 -35 -3 -17 -19 -44 -36 -60 -16 -17
-30 -38 -30 -48 0 -9 -7 -27 -16 -39 -14 -21 -14 -26 2 -68 16 -43 23 -49 91
-80 41 -19 104 -45 141 -57 85 -29 89 -31 95 -63 5 -30 -25 -64 -57 -64 -33 0
-158 -28 -166 -37 -4 -4 -10 -37 -14 -71 l-6 -64 178 7 c108 5 190 13 210 21
28 11 32 17 32 52 0 37 -30 171 -51 222 -18 47 -124 103 -236 125 -35 7 -40
14 -22 32 17 17 -7 26 -32 13 -32 -18 -34 -4 -5 25 25 24 33 26 93 23 100 -5
99 2 -30 120 -46 41 -84 56 -118 46z m259 -616 c-3 -22 -9 -23 -106 -28 -100
-5 -102 -4 -102 17 0 29 10 31 118 32 91 1 93 0 90 -21z"/>
<path d="M3252 5904 c-28 -19 -29 -61 -3 -113 32 -62 55 -341 30 -357 -18 -11
-45 25 -102 136 -30 58 -69 130 -88 160 -19 30 -43 72 -53 93 -32 63 -60 87
-101 87 -36 0 -36 -1 -30 -32 4 -18 25 -69 46 -113 36 -74 61 -119 179 -322
25 -43 52 -91 60 -108 8 -16 28 -49 44 -72 32 -46 51 -51 139 -37 47 8 58 28
92 164 l26 100 -28 25 c-16 15 -37 24 -49 22 -19 -3 -22 2 -28 56 -10 96 -7
130 14 192 24 71 26 121 4 129 -32 12 -129 6 -152 -10z"/>
<path d="M2574 5871 c-72 -18 -119 -75 -119 -146 0 -27 1 -168 3 -312 l2 -262
50 25 c27 13 52 30 56 35 4 6 9 46 13 88 l6 76 27 -42 c37 -57 149 -140 214
-159 97 -28 168 8 204 104 32 85 25 189 -19 274 -51 97 -125 189 -200 246 -97
74 -156 92 -237 73z m198 -191 c37 -38 79 -90 93 -115 79 -135 60 -255 -41
-255 -39 0 -48 5 -108 66 -54 54 -71 80 -95 144 -58 148 -42 230 43 230 37 0
46 -6 108 -70z"/>
<path d="M2220 5835 c-10 -12 -9 -28 8 -83 11 -37 30 -105 42 -152 11 -47 25
-101 30 -120 13 -47 13 -103 0 -95 -32 20 -215 264 -240 320 -21 47 -42 68
-92 88 -36 15 -38 15 -48 -3 -29 -55 -5 -123 91 -250 15 -19 46 -71 69 -115
70 -132 102 -189 118 -207 42 -49 146 10 176 98 23 68 31 216 16 289 -17 84
-65 180 -103 209 -49 35 -54 37 -67 21z"/>
<path d="M3745 4983 c-78 -7 -422 -43 -550 -57 -71 -8 -169 -18 -217 -21 -76
-6 -88 -10 -88 -25 0 -29 11 -49 23 -44 7 2 75 13 152 24 77 12 199 30 270 41
120 18 392 52 527 66 32 3 55 10 52 14 -5 9 -87 9 -169 2z"/>
<path d="M1976 3453 c8 -66 34 -552 34 -624 0 -63 2 -70 23 -78 12 -5 98 -17
190 -26 93 -10 193 -23 223 -30 l54 -12 0 31 c1 147 -26 682 -34 688 -5 4 -44
10 -86 13 -107 9 -354 53 -392 69 -14 6 -16 2 -12 -31z"/>
<path d="M7200 5571 c0 -6 4 -12 8 -15 5 -3 9 1 9 9 0 8 -4 15 -9 15 -4 0 -8
-4 -8 -9z"/>
<path d="M5615 2540 c-4 -6 -9 -238 -7 -287 l2 -33 84 0 c67 0 85 3 90 16 12
32 7 281 -6 292 -14 10 -157 22 -163 12z"/>
<path d="M7279 9493 c-13 -16 -12 -17 4 -4 9 7 17 15 17 17 0 8 -8 3 -21 -13z"/>
<path d="M7127 9389 c4 -13 8 -18 11 -10 2 7 -1 18 -6 23 -8 8 -9 4 -5 -13z"/>
<path d="M7260 9400 c0 -5 5 -10 10 -10 6 0 10 5 10 10 0 6 -4 10 -10 10 -5 0
-10 -4 -10 -10z"/>
<path d="M7188 9393 c7 -3 16 -2 19 1 4 3 -2 6 -13 5 -11 0 -14 -3 -6 -6z"/>
<path d="M10080 80 l0 -80 80 0 80 0 0 80 0 80 -80 0 -80 0 0 -80z"/>
</g>
</svg>
